<?xml version="1.0" encoding="UTF-8"?>
<svg width="160px" height="128px" viewBox="0 0 160 128" version="1.1" xmlns="http://www.w3.org/2000/svg" xmlns:xlink="http://www.w3.org/1999/xlink">
    <!-- Generator: Sketch 64 (93537) - https://sketch.com -->
    <title>japanese-toolkit</title>
    <desc>Created with Sketch.</desc>
    <g id="japanese-toolkit" stroke="none" stroke-width="1" fill="none" fill-rule="evenodd">
        <g id="Group-2" transform="translate(8.000000, 9.000000)" fill-rule="nonzero">
            <g id="toolkit" transform="translate(0.000000, 42.000000)">
                <polygon id="Path" fill="#6DC9F7" points="84 28.5 41.3565 28.5 43.5 34.5 34.5 34.5 32.5005 28.5 21 28.5 9 28.5 1.5 34.5 1.5 67.5 28.5 67.5 91.5 67.5 91.5 34.5"></polygon>
                <g id="Group" fill="#333333">
                    <path d="M84.5265,27 L82.5,27 L82.5,13.5 C82.5,6.0555 76.4445,0 69,0 L24,0 C16.5555,0 10.5,6.0555 10.5,13.5 L10.5,27 L8.4735,27 L0,33.78 L0,69 L28.5,69 L30,69 L93,69 L93,33.78 L84.5265,27 Z M87.2235,33 L68.7765,33 L72.5265,30 L73.5,30 L83.4735,30 L87.2235,33 Z M21,27 L19.5,27 L19.5,13.5 C19.5,11.019 21.519,9 24,9 L69,9 C71.481,9 73.5,11.019 73.5,13.5 L73.5,27 L71.4735,27 L61.6155,27 L62.823,23.982 C62.883,23.985 62.94,24 63,24 C65.481,24 67.5,21.981 67.5,19.5 C67.5,17.019 65.481,15 63,15 C60.519,15 58.5,17.019 58.5,19.5 C58.5,20.844 59.103,22.0365 60.039,22.863 L58.3845,27 L51.6,27 L53.9475,18.3945 L51.0525,17.607 L48.4905,27 L42.414,27 L36.8895,11.529 L26.6295,15.633 L30.4185,27 L21.525,27 L21,27 Z M61.5,19.5 C61.5,18.672 62.172,18 63,18 C63.828,18 64.5,18.672 64.5,19.5 C64.5,20.328 63.828,21 63,21 C62.172,21 61.5,20.328 61.5,19.5 Z M35.58,33 L30.3705,17.367 L35.1105,15.471 L41.3715,33 L35.58,33 Z M44.556,33 L43.485,30 L47.673,30 L46.8555,33 L44.556,33 Z M50.7825,30 L57.1845,30 L55.9845,33 L49.9635,33 L50.7825,30 Z M60.4155,30 L67.7235,30 L63.9735,33 L59.217,33 L60.4155,30 Z M13.5,13.5 C13.5,7.7115 18.2115,3 24,3 L69,3 C74.7885,3 79.5,7.7115 79.5,13.5 L79.5,27 L76.5,27 L76.5,13.5 C76.5,9.3645 73.1355,6 69,6 L24,6 C19.8645,6 16.5,9.3645 16.5,13.5 L16.5,27 L13.5,27 L13.5,13.5 Z M27,66 L3,66 L3,35.22 L9.5265,30 L20.475,30 L27,35.22 L27,66 Z M25.2765,30 L31.4205,30 L32.421,33 L29.028,33 L25.2765,30 Z M30,66 L30,36 L90,36 L90,66 L30,66 Z" id="Shape"></path>
                    <rect id="Rectangle" x="33" y="39" width="3" height="3" rx="1.5"></rect>
                    <rect id="Rectangle" x="39" y="39" width="13.5" height="3" rx="1.5"></rect>
                </g>
            </g>
            <g id="sakura" transform="translate(53.000000, 0.000000)">
                <path d="M90.515,37.995 C90.3206182,37.6222951 89.9771089,37.3496687 89.57,37.245 L78.38,34.32 L85.715,25.38 C85.9794893,25.0496439 86.0942286,24.6239539 86.0315916,24.2054251 C85.9689546,23.7868962 85.7346166,23.4134491 85.385,23.175 C79.985,19.62 71.645,19.155 63.05,21.945 C62.705,22.065 62.345,22.185 61.985,22.32 C62,21.93 62,21.555 62,21.18 C62,12.165 58.985,4.365 53.93,0.33 C53.6010734,0.0615842962 53.1727443,-0.0527082053 52.7538202,0.0161560274 C52.3348961,0.0850202602 51.9656934,0.330413895 51.74,0.69 L45.5,10.44 L39.26,0.69 C39.0343066,0.330413895 38.6651039,0.0850202602 38.2461798,0.0161560274 C37.8272557,-0.0527082053 37.3989266,0.0615842962 37.07,0.33 C32.015,4.365 29,12.165 29,21.18 C29,21.555 29,21.93 29.015,22.32 C28.655,22.185 28.295,22.065 27.95,21.945 C19.355,19.155 11.015,19.62 5.615,23.175 C5.26538339,23.4134491 5.03104538,23.7868962 4.96840841,24.2054251 C4.90577144,24.6239539 5.02051071,25.0496439 5.285,25.38 L12.62,34.32 L1.43,37.245 C1.02289106,37.3496687 0.679381755,37.6222951 0.485,37.995 C0.288696127,38.3763623 0.26148577,38.8226122 0.41,39.225 C2.675,45.27 9.155,50.535 17.75,53.34 C18.11,53.445 18.47,53.565 18.845,53.67 C18.605,53.97 18.365,54.27 18.155,54.57 C12.845,61.875 10.7,69.96 12.425,76.185 C12.5313971,76.5958048 12.8103023,76.9404989 13.1898609,77.1302782 C13.5694196,77.3200575 14.0125179,77.3363652 14.405,77.175 L25.19,72.96 L24.5,84.51 C24.4741899,84.9348931 24.6327026,85.3503058 24.935,85.65 C25.2310801,85.9499564 25.6387308,86.1130166 26.06,86.1007237 C32.525,85.815 39.545,81.27 44.855,73.965 C45.065,73.665 45.29,73.35 45.5,73.035 C45.71,73.35 45.935,73.665 46.145,73.965 C51.455,81.27 58.475,85.815 64.94,86.1007237 L65,86.1007237 C65.4008688,86.0983359 65.7843928,85.9362835 66.065,85.65 C66.3672974,85.3503058 66.5258101,84.9348931 66.5,84.51 L65.81,72.96 L76.595,77.175 C76.9874821,77.3363652 77.4305804,77.3200575 77.8101391,77.1302782 C78.1896977,76.9404989 78.4686029,76.5958048 78.575,76.185 C80.3,69.96 78.155,61.875 72.845,54.57 C72.635,54.27 72.395,53.97 72.155,53.67 C72.53,53.565 72.89,53.445 73.25,53.34 C81.845,50.535 88.325,45.27 90.59,39.225 C90.7385142,38.8226122 90.7113039,38.3763623 90.515,37.995 Z M65.195,41.94 C64.6661714,43.0097383 63.7233722,43.8170778 62.585,44.175 C62.1346672,44.3226529 61.6639188,44.3985801 61.19,44.4 C59.7942625,44.3915982 58.4790821,43.7450599 57.62,42.645 L47.93,45.78 L53.93,54.045 C54.5660631,53.8503531 55.2382934,53.8041693 55.895,53.91 C57.0788106,54.0857569 58.1401726,54.7355704 58.835,55.71 C59.5388595,56.674139 59.8300599,57.8787663 59.6443168,59.0579532 C59.4585738,60.2371402 58.8111615,61.2939192 57.845,61.995 C57.0756964,62.5483376 56.1526303,62.8472851 55.205,62.8501893 C54.9686298,62.8523812 54.7325683,62.8322909 54.5,62.79 C53.3175682,62.6104565 52.2575729,61.9614798 51.56,60.99 C50.8586509,60.0258148 50.567441,58.8232258 50.75,57.645 C50.8520923,56.9822676 51.1034173,56.3513906 51.485,55.8 L45.5,47.55 L39.515,55.8 C39.8965827,56.3513906 40.1479077,56.9822676 40.25,57.645 C40.432559,58.8232258 40.1413491,60.0258148 39.44,60.99 C38.7424271,61.9614798 37.6824318,62.6104565 36.5,62.79 C36.2674317,62.8322909 36.0313702,62.8523812 35.795,62.8501893 C34.8473697,62.8472851 33.9243036,62.5483376 33.155,61.995 C32.1888385,61.2939192 31.5414262,60.2371402 31.3556832,59.0579532 C31.1699401,57.8787663 31.4611405,56.674139 32.165,55.71 C32.8598274,54.7355704 33.9211894,54.0857569 35.105,53.91 C35.7617066,53.8041693 36.4339369,53.8503531 37.07,54.045 L43.07,45.78 L33.38,42.645 C32.5209179,43.7450599 31.2057375,44.3915982 29.81,44.4 C29.3360812,44.3985801 28.8653328,44.3226529 28.415,44.175 C26.2495701,43.4603471 24.9638437,41.2359075 25.4254752,39.0028128 C25.8871067,36.7697181 27.9494406,35.2373988 30.2207401,35.4399188 C32.4920396,35.6424389 34.2507368,37.5154598 34.31,39.795 L44,42.93 L44,32.73 C41.93368,31.9994455 40.6941919,29.8865007 41.0648065,27.7264004 C41.4354211,25.5663002 43.3083366,23.9873593 45.5,23.9873593 C47.6916634,23.9873593 49.5645789,25.5663002 49.9351935,27.7264004 C50.3058081,29.8865007 49.06632,31.9994455 47,32.73 L47,42.93 L56.69,39.795 C56.7291649,37.9430068 57.8992171,36.3042282 59.6381405,35.6658254 C61.3770639,35.0274226 63.3295337,35.5198444 64.557712,36.9065639 C65.7858903,38.2932833 66.0388159,40.2909434 65.195,41.94 L65.195,41.94 Z" id="Shape" fill="#FA759E"></path>
                <circle id="Oval" fill="#D66590" cx="45.5" cy="28.5" r="1.5"></circle>
                <path d="M30.275,38.475 C30.1243139,38.4281903 29.9677618,38.40294 29.81,38.4 C29.5705841,38.402943 29.3348471,38.4593148 29.12,38.565 C28.7701512,38.7470941 28.506096,39.0596492 28.385,39.435 C28.2554484,39.8110176 28.2880498,40.2239694 28.475,40.575 C28.6522486,40.9318955 28.9658839,41.2022708 29.345,41.325 C29.7210176,41.4545516 30.1339694,41.4219502 30.485,41.235 C30.8418955,41.0577514 31.1122708,40.7441161 31.235,40.365 C31.3567088,39.9880237 31.324355,39.5782081 31.145,39.225 C30.9677514,38.8681045 30.6541161,38.5977292 30.275,38.475 Z" id="Path" fill="#D66590"></path>
                <path d="M35.81,56.85 C35.3256687,56.8483334 34.8692655,57.076535 34.58,57.465 C34.3484414,57.7910185 34.2566454,58.1960012 34.325,58.59 C34.3853568,58.9826057 34.6017188,59.3341939 34.925,59.565 C35.2463301,59.7947901 35.6440252,59.8915268 36.035,59.835 C36.4293714,59.772416 36.7825127,59.5551714 37.0162,59.2313878 C37.2498873,58.9076042 37.3448309,58.5040083 37.28,58.11 C37.2196432,57.7173943 37.0032812,57.3658061 36.68,57.135 C36.4287748,56.9477915 36.1232984,56.8477216 35.81,56.85 Z" id="Path" fill="#D66590"></path>
                <path d="M55.19,56.85 C54.8767016,56.8477216 54.5712252,56.9477915 54.32,57.135 C53.9967188,57.3658061 53.7803568,57.7173943 53.72,58.11 C53.6551691,58.5040083 53.7501127,58.9076042 53.9838,59.2313878 C54.2174873,59.5551714 54.5706286,59.772416 54.965,59.835 C55.7803969,59.9609099 56.5444036,59.4046594 56.675,58.59 C56.7433546,58.1960012 56.6515586,57.7910185 56.42,57.465 C56.1307345,57.076535 55.6743313,56.8483334 55.19,56.85 Z" id="Path" fill="#D66590"></path>
                <path d="M62.615,39.435 C62.493904,39.0596492 62.2298488,38.7470941 61.88,38.565 C61.6651529,38.4593148 61.4294159,38.402943 61.19,38.4 C61.0322382,38.40294 60.8756861,38.4281903 60.725,38.475 C60.3458839,38.5977292 60.0322486,38.8681045 59.855,39.225 C59.675645,39.5782081 59.6432912,39.9880237 59.765,40.365 C59.8877292,40.7441161 60.1581045,41.0577514 60.515,41.235 C60.8682081,41.414355 61.2780237,41.4467088 61.655,41.325 C62.0341161,41.2022708 62.3477514,40.9318955 62.525,40.575 C62.7119502,40.2239694 62.7445516,39.8110176 62.615,39.435 L62.615,39.435 Z" id="Path" fill="#D66590"></path>
                <path d="M90.521,38.001 C90.3257726,37.6235441 89.9796045,37.3466095 89.5685,37.239 L78.374,34.3185 L85.7135,25.3755 C85.9824028,25.0469697 86.0994939,24.6198765 86.0357334,24.2001439 C85.9719729,23.7804113 85.7333334,23.4073561 85.379,23.1735 C79.991,19.6155 71.645,19.1565 63.0515,21.948 C62.699,22.062 62.3435,22.1865 61.9775,22.32 C61.9925,21.9315 62,21.5535 62,21.18 C62,12.159 58.985,4.365 53.936,0.33 C53.6039358,0.0648485762 53.174991,-0.0470175177 52.7557275,0.022192416 C52.3364641,0.0914023497 51.9662293,0.335193042 51.737,0.693 L45.5,10.434 L39.263,0.6915 C39.0337707,0.333693042 38.6635359,0.0899023497 38.2442725,0.020692416 C37.825009,-0.0485175177 37.3960642,0.0633485762 37.064,0.3285 C32.015,4.365 29,12.159 29,21.18 C29,21.5535 29,21.93 29.0225,22.32 C28.6565,22.1865 28.301,22.062 27.9485,21.948 C19.3565,19.1565 11.0105,19.6155 5.621,23.1735 C5.26666658,23.4073561 5.02802709,23.7804113 4.96426662,24.2001439 C4.90050615,24.6198765 5.01759721,25.0469697 5.2865,25.3755 L12.626,34.3185 L1.4315,37.239 C1.02021841,37.3464703 0.673849681,37.6233994 0.478498639,38.0009446 C0.283147596,38.3784898 0.257161388,38.8211925 0.407,39.219 C2.678,45.2655 9.161,50.55 17.75,53.334 C18.1025,53.448 18.464,53.5575 18.8375,53.6625 C18.5955,53.9695 18.3675,54.2695 18.1535,54.5625 C12.842,61.8705 10.6985,69.951 12.416,76.1775 C12.5291155,76.5868452 12.8104494,76.9290564 13.1901861,77.1192107 C13.5699228,77.309365 14.012468,77.3296385 14.408,77.175 L25.181,72.9585 L24.5,84.5115 C24.4744697,84.9360928 24.6304063,85.3515601 24.929,85.6545 C25.2282088,85.9562486 25.6398153,86.1193688 26.0645,86.1045 C32.5145,85.815 39.539,81.279 44.8475,73.971 C45.0665,73.671 45.281,73.362 45.4985,73.038 C45.716,73.362 45.9305,73.671 46.1495,73.971 C51.458,81.279 58.4795,85.821 64.9325,86.1045 L65,86.1045 C65.413644,86.1054345 65.8092255,85.9350956 66.0932186,85.6343469 C66.3772117,85.3335982 66.5244057,84.928924 66.5,84.516 L65.819,72.966 L76.592,77.1825 C76.987532,77.3371385 77.4300772,77.316865 77.8098139,77.1267107 C78.1895506,76.9365564 78.4708845,76.5943452 78.584,76.185 C80.3015,69.9585 78.158,61.878 72.848,54.57 C72.632,54.27 72.4035,53.97 72.1625,53.67 C72.5365,53.57 72.8985,53.4605 73.2485,53.3415 C81.8405,50.55 88.3235,45.273 90.5945,39.2265 C90.7459488,38.82622 90.7192051,38.3803094 90.521,38.001 Z M72.32,50.4795 C71.2761594,50.8139801 70.2157484,51.0943532 69.143,51.3195 C68.6212988,51.4328131 68.1991402,51.8148726 68.0344932,52.3227145 C67.8698462,52.8305564 67.9875269,53.3876368 68.3435,53.7855 C69.0781808,54.5998433 69.7710714,55.4509373 70.4195,56.3355 C74.723,62.2575 76.7495,68.625 76.0295,73.7355 L64.7285,69.312 C64.2521448,69.1259698 63.7138344,69.1954438 63.3003191,69.4963202 C62.8868038,69.7971967 62.655066,70.2880146 62.6855,70.7985 L63.3995,82.911 C58.3085,82.011 52.88,78.12 48.5765,72.1965 C47.9361551,71.3062294 47.3413906,70.384044 46.7945,69.4335 C46.5051248,69.0018712 46.0196551,68.7428663 45.5,68.7428663 C44.9803449,68.7428663 44.4948752,69.0018712 44.2055,69.4335 C43.6586094,70.384044 43.0638449,71.3062294 42.4235,72.1965 C38.12,78.12 32.6915,82.014 27.6005,82.911 L28.3145,70.7985 C28.344934,70.2880146 28.1131962,69.7971967 27.6996809,69.4963202 C27.2861656,69.1954438 26.7478552,69.1259698 26.2715,69.312 L14.9705,73.74 C14.2505,68.622 16.277,62.2545 20.582,56.331 C21.2297902,55.4463556 21.9221859,54.5952547 22.6565,53.781 C23.0124731,53.3831368 23.1301538,52.8260564 22.9655068,52.3182145 C22.8008598,51.8103726 22.3787012,51.4283131 21.857,51.315 C20.7838056,51.0896525 19.7229055,50.8092825 18.6785,50.475 C11.717,48.2145 6.3365,44.253 3.908,39.6885 L15.65,36.63 C16.1436323,36.5002228 16.5373979,36.1283403 16.6951575,35.6429262 C16.8529171,35.1575121 16.7530183,34.6251886 16.43,34.23 L8.7335,24.846 C13.3835,22.5795 20.06,22.5375 27.023,24.801 C28.0645851,25.1456125 29.0879146,25.5431289 30.089,25.992 C30.5778416,26.2086569 31.145054,26.1487113 31.5778075,25.8346559 C32.0105609,25.5206006 32.2434157,24.999926 32.189,24.468 C32.0701692,23.3759237 32.0070873,22.2784996 32,21.18 C32,13.869 34.1,7.53 37.7,3.8055 L44.2415,14.0235 C44.534544,14.4288381 45.0043263,14.6688991 45.5045,14.6688991 C46.0046737,14.6688991 46.474456,14.4288381 46.7675,14.0235 L53.3,3.8055 C56.9,7.53 59,13.869 59,21.18 C58.9944074,22.278423 58.9328275,23.3758468 58.8155,24.468 C58.7610843,24.999926 58.9939391,25.5206006 59.4266925,25.8346559 C59.859446,26.1487113 60.4266584,26.2086569 60.9155,25.992 C61.9165854,25.5431289 62.9399149,25.1456125 63.9815,24.801 C70.946,22.5405 77.6315,22.581 82.271,24.846 L74.573,34.227 C74.2499817,34.6221886 74.1500829,35.1545121 74.3078425,35.6399262 C74.4656021,36.1253403 74.8593677,36.4972228 75.353,36.627 L87.0965,39.69 C84.6635,44.2575 79.283,48.219 72.32,50.4795 Z" id="Shape" fill="#333333"></path>
                <path d="M63.236,35.892 C61.8624986,35.1812293 60.219284,35.2303751 58.8907155,36.0219602 C57.562147,36.8135452 56.7367304,38.2352543 56.708,39.7815 L47,42.936 L47,32.724 C49.06632,31.9934455 50.3058081,29.8805007 49.9351935,27.7204004 C49.5645789,25.5603002 47.6916634,23.9813593 45.5,23.9813593 C43.3083366,23.9813593 41.4354211,25.5603002 41.0648065,27.7204004 C40.6941919,29.8805007 41.93368,31.9934455 44,32.724 L44,42.936 L34.292,39.786 C34.243831,37.5712977 32.6050198,35.7143938 30.4134785,35.3913256 C28.2219372,35.0682574 26.1170083,36.3732741 25.4318114,38.4798666 C24.7466145,40.586459 25.6810434,42.8800668 27.643294,43.9080741 C29.6055446,44.9360813 32.0231658,44.3985855 33.365,42.636 L43.073,45.786 L37.073,54.0465 C36.4341806,53.8511814 35.7599978,53.7999517 35.099,53.8965 C32.7774986,54.2594183 31.1260057,56.3473717 31.3074808,58.6900508 C31.4889559,61.0327298 33.4423027,62.8414351 35.792,62.8425 C36.0289267,62.8443883 36.2656411,62.8278384 36.5,62.793 C38.0294292,62.5619323 39.3309353,61.5570882 39.9415334,60.1359212 C40.5521315,58.7147541 40.3851541,57.0789826 39.5,55.8105 L45.5,47.55 L51.5,55.809 C50.6227019,57.0792446 50.4600815,58.7113075 51.0694825,60.1296882 C51.6788834,61.548069 52.9747003,62.5535209 54.5,62.7915 C54.736141,62.829161 54.9748749,62.8485 55.214,62.8485 C57.5636973,62.8474351 59.5170441,61.0387298 59.6985192,58.6960508 C59.8799943,56.3533717 58.2285014,54.2654183 55.907,53.9025 C55.2460022,53.8059517 54.5718194,53.8571814 53.933,54.0525 L47.933,45.792 L57.641,42.642 C58.4818576,43.7572499 59.7977813,44.4127121 61.1945,44.412 C61.6683492,44.4111889 62.139115,44.3357652 62.5895,44.1885 L62.5895,44.1885 C64.3201667,43.6256434 65.5414344,42.0757727 65.6839261,40.2614654 C65.8264179,38.4471582 64.8620783,36.7256346 63.2405,35.8995 L63.236,35.892 Z M45.5,27 C46.3284271,27 47,27.6715729 47,28.5 C47,29.3284271 46.3284271,30 45.5,30 C44.6715729,30 44,29.3284271 44,28.5 C44,27.6715729 44.6715729,27 45.5,27 Z M30.488,41.238 C30.1341331,41.4207139 29.7215768,41.4531561 29.3435,41.328 C28.6397288,41.10172 28.2057504,40.3964293 28.3209695,39.6662093 C28.4361886,38.9359894 29.0662473,38.3985898 29.8055,38.3999972 C29.9639534,38.4005963 30.1213445,38.4259004 30.272,38.475 C31.0591988,38.7316568 31.4895589,39.5776065 31.2335,40.365 L31.2335,40.365 C31.1119262,40.7440871 30.8433749,41.0585677 30.488,41.238 L30.488,41.238 Z M37.016,59.238 C36.5959124,59.8174023 35.8250177,60.0193358 35.1748234,59.7202907 C34.5246291,59.4212456 34.1762533,58.7045238 34.3427755,58.0084987 C34.5092976,57.3124736 35.1443313,56.8310299 35.8594666,56.8586362 C36.5746018,56.8862425 37.1706307,57.4152089 37.283,58.122 C37.343379,58.5122403 37.24744,58.910549 37.016,59.2305 L37.016,59.238 Z M55.1975,56.8499995 C55.9354494,56.8494029 56.5642134,57.3856447 56.6801018,58.1144379 C56.7959902,58.8432312 56.3645734,59.5480566 55.6628372,59.7763898 C54.9611011,60.004723 54.1975263,59.6887279 53.8623567,59.0312851 C53.527187,58.3738423 53.719999,57.5702735 54.317,57.1365 C54.5729427,56.9505352 54.8811308,56.850256 55.1975,56.8499995 Z M62.5295,40.584 C62.1533932,41.3221275 61.2501287,41.6156046 60.512,41.2395 C59.9714267,40.9642963 59.6498158,40.3906 59.6970926,39.7858509 C59.7443694,39.1811018 60.1512267,38.6643541 60.728,38.4765 C60.8786555,38.4274004 61.0360466,38.4020963 61.1945,38.4015 C61.7165643,38.4017565 62.2009433,38.6734367 62.4733595,39.1187913 C62.7457757,39.5641458 62.7670394,40.1191061 62.5295,40.584 L62.5295,40.584 Z" id="Shape" fill="#333333"></path>
            </g>
        </g>
    </g>
</svg>